<mxfile host="app.diagrams.net" agent="Mozilla/5.0 (Windows NT 10.0; Win64; x64) AppleWebKit/537.36 (KHTML, like Gecko) Chrome/132.0.0.0 Safari/537.36 Edg/132.0.0.0" version="26.0.6">
  <diagram name="Page-1" id="pAYEDax6jlEjCvd47c3e">
    <mxGraphModel dx="597" dy="271" grid="1" gridSize="10" guides="1" tooltips="1" connect="1" arrows="1" fold="1" page="1" pageScale="1" pageWidth="850" pageHeight="1100" math="0" shadow="0">
      <root>
        <mxCell id="0" />
        <mxCell id="1" parent="0" />
        <mxCell id="j3ycPdzo6cHpRrVuyQYC-3" value="" style="edgeStyle=orthogonalEdgeStyle;rounded=0;orthogonalLoop=1;jettySize=auto;html=1;strokeColor=#FF0500;" edge="1" parent="1" source="j3ycPdzo6cHpRrVuyQYC-1" target="j3ycPdzo6cHpRrVuyQYC-2">
          <mxGeometry relative="1" as="geometry" />
        </mxCell>
        <mxCell id="j3ycPdzo6cHpRrVuyQYC-1" value="" style="ellipse;html=1;shape=startState;fillColor=#000000;strokeColor=#ff0000;" vertex="1" parent="1">
          <mxGeometry x="40" y="45" width="30" height="30" as="geometry" />
        </mxCell>
        <mxCell id="j3ycPdzo6cHpRrVuyQYC-6" value="" style="edgeStyle=orthogonalEdgeStyle;rounded=0;orthogonalLoop=1;jettySize=auto;html=1;strokeColor=#FF0500;" edge="1" parent="1" source="j3ycPdzo6cHpRrVuyQYC-2" target="j3ycPdzo6cHpRrVuyQYC-4">
          <mxGeometry relative="1" as="geometry" />
        </mxCell>
        <mxCell id="j3ycPdzo6cHpRrVuyQYC-2" value="Xem thông tin nhân viên" style="rounded=1;whiteSpace=wrap;html=1;arcSize=40;fontColor=#000000;fillColor=#ffffc0;strokeColor=#ff0000;" vertex="1" parent="1">
          <mxGeometry x="120" y="40" width="120" height="40" as="geometry" />
        </mxCell>
        <mxCell id="j3ycPdzo6cHpRrVuyQYC-7" style="edgeStyle=orthogonalEdgeStyle;rounded=0;orthogonalLoop=1;jettySize=auto;html=1;entryX=0.5;entryY=0;entryDx=0;entryDy=0;strokeColor=#FF0500;" edge="1" parent="1" source="j3ycPdzo6cHpRrVuyQYC-4" target="j3ycPdzo6cHpRrVuyQYC-5">
          <mxGeometry relative="1" as="geometry">
            <Array as="points">
              <mxPoint x="380" y="100" />
              <mxPoint x="180" y="100" />
            </Array>
          </mxGeometry>
        </mxCell>
        <mxCell id="j3ycPdzo6cHpRrVuyQYC-4" value="Hiển thị danh sách nhân viên" style="rounded=1;whiteSpace=wrap;html=1;arcSize=40;fontColor=#000000;fillColor=#ffffc0;strokeColor=#ff0000;" vertex="1" parent="1">
          <mxGeometry x="320" y="40" width="120" height="40" as="geometry" />
        </mxCell>
        <mxCell id="j3ycPdzo6cHpRrVuyQYC-10" style="edgeStyle=orthogonalEdgeStyle;rounded=0;orthogonalLoop=1;jettySize=auto;html=1;entryX=0;entryY=0.5;entryDx=0;entryDy=0;strokeColor=#FF0500;" edge="1" parent="1" source="j3ycPdzo6cHpRrVuyQYC-5" target="j3ycPdzo6cHpRrVuyQYC-9">
          <mxGeometry relative="1" as="geometry" />
        </mxCell>
        <mxCell id="j3ycPdzo6cHpRrVuyQYC-5" value="Chọn nhân viên" style="rounded=1;whiteSpace=wrap;html=1;arcSize=40;fontColor=#000000;fillColor=#ffffc0;strokeColor=#ff0000;" vertex="1" parent="1">
          <mxGeometry x="120" y="120" width="120" height="40" as="geometry" />
        </mxCell>
        <mxCell id="j3ycPdzo6cHpRrVuyQYC-15" value="" style="edgeStyle=orthogonalEdgeStyle;rounded=0;orthogonalLoop=1;jettySize=auto;html=1;" edge="1" parent="1" target="j3ycPdzo6cHpRrVuyQYC-13">
          <mxGeometry relative="1" as="geometry">
            <mxPoint x="380" y="200" as="sourcePoint" />
          </mxGeometry>
        </mxCell>
        <mxCell id="j3ycPdzo6cHpRrVuyQYC-20" style="edgeStyle=orthogonalEdgeStyle;rounded=0;orthogonalLoop=1;jettySize=auto;html=1;entryX=0.5;entryY=0;entryDx=0;entryDy=0;strokeColor=#FF0500;" edge="1" parent="1" source="j3ycPdzo6cHpRrVuyQYC-9" target="j3ycPdzo6cHpRrVuyQYC-13">
          <mxGeometry relative="1" as="geometry" />
        </mxCell>
        <mxCell id="j3ycPdzo6cHpRrVuyQYC-9" value="Hiển thị thông tin nhân viên" style="rounded=1;whiteSpace=wrap;html=1;arcSize=40;fontColor=#000000;fillColor=#ffffc0;strokeColor=#ff0000;" vertex="1" parent="1">
          <mxGeometry x="320" y="120" width="120" height="40" as="geometry" />
        </mxCell>
        <mxCell id="j3ycPdzo6cHpRrVuyQYC-11" value="ID, mã số thuế,&amp;nbsp;&lt;br&gt;TK ngân hàng,&lt;div&gt;username, password, họ tên,&amp;nbsp;&lt;span style=&quot;background-color: transparent; color: light-dark(rgb(0, 0, 0), rgb(255, 255, 255));&quot;&gt;ngày tháng&lt;/span&gt;&lt;/div&gt;&lt;div&gt;&lt;span style=&quot;background-color: transparent; color: light-dark(rgb(0, 0, 0), rgb(255, 255, 255));&quot;&gt;năm sinh,&amp;nbsp;&lt;/span&gt;&lt;span style=&quot;background-color: transparent; color: light-dark(rgb(0, 0, 0), rgb(255, 255, 255));&quot;&gt;giới tính,&amp;nbsp;&lt;/span&gt;&lt;span style=&quot;background-color: transparent; color: light-dark(rgb(0, 0, 0), rgb(255, 255, 255));&quot;&gt;SĐT, Email,&lt;/span&gt;&lt;/div&gt;&lt;div&gt;&lt;div&gt;&lt;div&gt;hồ sơ y tế, phúc lợi&lt;/div&gt;&lt;/div&gt;&lt;/div&gt;" style="whiteSpace=wrap;html=1;shape=mxgraph.basic.document;align=center;" vertex="1" parent="1">
          <mxGeometry x="460" y="80" width="130" height="120" as="geometry" />
        </mxCell>
        <mxCell id="j3ycPdzo6cHpRrVuyQYC-12" value="" style="endArrow=none;dashed=1;html=1;dashPattern=1 3;strokeWidth=2;rounded=0;exitX=1.028;exitY=0.512;exitDx=0;exitDy=0;exitPerimeter=0;entryX=-0.029;entryY=0.492;entryDx=0;entryDy=0;entryPerimeter=0;" edge="1" parent="1" source="j3ycPdzo6cHpRrVuyQYC-9" target="j3ycPdzo6cHpRrVuyQYC-11">
          <mxGeometry width="50" height="50" relative="1" as="geometry">
            <mxPoint x="400" y="210" as="sourcePoint" />
            <mxPoint x="450" y="160" as="targetPoint" />
          </mxGeometry>
        </mxCell>
        <mxCell id="j3ycPdzo6cHpRrVuyQYC-22" value="" style="edgeStyle=orthogonalEdgeStyle;rounded=0;orthogonalLoop=1;jettySize=auto;html=1;strokeColor=#FF0500;" edge="1" parent="1" source="j3ycPdzo6cHpRrVuyQYC-13" target="j3ycPdzo6cHpRrVuyQYC-21">
          <mxGeometry relative="1" as="geometry" />
        </mxCell>
        <mxCell id="j3ycPdzo6cHpRrVuyQYC-13" value="Xem thêm&lt;br&gt;nhân viên" style="rhombus;whiteSpace=wrap;html=1;fontColor=#000000;fillColor=#ffffc0;strokeColor=#FF0000;" vertex="1" parent="1">
          <mxGeometry x="320" y="200" width="120" height="80" as="geometry" />
        </mxCell>
        <mxCell id="j3ycPdzo6cHpRrVuyQYC-14" style="edgeStyle=orthogonalEdgeStyle;rounded=0;orthogonalLoop=1;jettySize=auto;html=1;entryX=0.487;entryY=1.077;entryDx=0;entryDy=0;entryPerimeter=0;strokeColor=#FF0500;" edge="1" parent="1" source="j3ycPdzo6cHpRrVuyQYC-13" target="j3ycPdzo6cHpRrVuyQYC-5">
          <mxGeometry relative="1" as="geometry" />
        </mxCell>
        <mxCell id="j3ycPdzo6cHpRrVuyQYC-21" value="" style="ellipse;html=1;shape=endState;fillColor=#000000;strokeColor=#ff0000;" vertex="1" parent="1">
          <mxGeometry x="490" y="225" width="30" height="30" as="geometry" />
        </mxCell>
        <mxCell id="j3ycPdzo6cHpRrVuyQYC-23" value="Đúng" style="text;html=1;align=center;verticalAlign=middle;whiteSpace=wrap;rounded=0;fontFamily=Helvetica;fontSize=12;fontColor=#000000;" vertex="1" parent="1">
          <mxGeometry x="280" y="210" width="60" height="30" as="geometry" />
        </mxCell>
        <mxCell id="j3ycPdzo6cHpRrVuyQYC-24" value="Sai" style="text;html=1;align=center;verticalAlign=middle;resizable=0;points=[];autosize=1;strokeColor=none;fillColor=none;" vertex="1" parent="1">
          <mxGeometry x="430" y="210" width="40" height="30" as="geometry" />
        </mxCell>
      </root>
    </mxGraphModel>
  </diagram>
</mxfile>
